<?xml version="1.0" encoding="UTF-8" standalone="no"?>
<!DOCTYPE svg PUBLIC "-//W3C//DTD SVG 1.1//EN"
 "http://www.w3.org/Graphics/SVG/1.1/DTD/svg11.dtd">
<!-- Generated by graphviz version 2.28.0 (20110507.0327)
 -->
<!-- Title: G Pages: 1 -->
<svg width="132pt" height="170pt"
 viewBox="0.00 0.00 132.00 170.00" xmlns="http://www.w3.org/2000/svg" xmlns:xlink="http://www.w3.org/1999/xlink">
<g id="graph1" class="graph" transform="scale(1 1) rotate(0) translate(4 166)">
<title>G</title>
<polygon fill="white" stroke="white" points="-4,5 -4,-166 129,-166 129,5 -4,5"/>
<g id="graph2" class="cluster"><title>cluster_in</title>
<polygon fill="none" stroke="white" points="8,-91 8,-154 116,-154 116,-91 8,-91"/>
<text text-anchor="middle" x="62" y="-138.8" font-family="Times New Roman,serif" font-size="14.00">input</text>
</g>
<g id="graph3" class="cluster"><title>cluster_out</title>
<polygon fill="none" stroke="white" points="19,-8 19,-71 105,-71 105,-8 19,-8"/>
<text text-anchor="middle" x="62" y="-15.8" font-family="Times New Roman,serif" font-size="14.00">output</text>
</g>
<!-- input -->
<g id="node2" class="node"><title>input</title>
<polygon fill="none" stroke="black" points="16,-99.5 16,-122.5 108,-122.5 108,-99.5 16,-99.5"/>
<text text-anchor="middle" x="27.5" y="-107.3" font-family="Times New Roman,serif" font-size="14.00">e</text>
<polyline fill="none" stroke="black" points="39,-99.5 39,-122.5 "/>
<text text-anchor="middle" x="50.5" y="-107.3" font-family="Times New Roman,serif" font-size="14.00">n</text>
<polyline fill="none" stroke="black" points="62,-99.5 62,-122.5 "/>
<text text-anchor="middle" x="73.5" y="-107.3" font-family="Times New Roman,serif" font-size="14.00">k</text>
<polyline fill="none" stroke="black" points="85,-99.5 85,-122.5 "/>
<text text-anchor="middle" x="96.5" y="-107.3" font-family="Times New Roman,serif" font-size="14.00">a</text>
</g>
<!-- output -->
<g id="node4" class="node"><title>output</title>
<polygon fill="none" stroke="black" points="27.5,-39.5 27.5,-62.5 96.5,-62.5 96.5,-39.5 27.5,-39.5"/>
<text text-anchor="middle" x="39" y="-47.3" font-family="Times New Roman,serif" font-size="14.00">e</text>
<polyline fill="none" stroke="black" points="50.5,-39.5 50.5,-62.5 "/>
<text text-anchor="middle" x="62" y="-47.3" font-family="Times New Roman,serif" font-size="14.00">ŋ</text>
<polyline fill="none" stroke="black" points="73.5,-39.5 73.5,-62.5 "/>
<text text-anchor="middle" x="85" y="-47.3" font-family="Times New Roman,serif" font-size="14.00">a</text>
</g>
<!-- input&#45;&#45;output -->
<g id="edge4" class="edge"><title>input:e&#45;&#45;output:e</title>
<path fill="none" stroke="black" stroke-dasharray="5,2" d="M27,-98C27,-81.9753 39,-80.0247 39,-64"/>
</g>
<!-- input&#45;&#45;output -->
<g id="edge6" class="edge"><title>input:n&#45;&#45;output:N</title>
<path fill="none" stroke="black" stroke-dasharray="5,2" d="M50,-98C50,-81.9753 62,-80.0247 62,-64"/>
</g>
<!-- input&#45;&#45;output -->
<g id="edge8" class="edge"><title>input:k&#45;&#45;output:N</title>
<path fill="none" stroke="black" stroke-dasharray="5,2" d="M74,-98C74,-81.9753 62,-80.0247 62,-64"/>
</g>
<!-- input&#45;&#45;output -->
<g id="edge10" class="edge"><title>input:a&#45;&#45;output:a</title>
<path fill="none" stroke="black" stroke-dasharray="5,2" d="M97,-98C97,-81.9753 85,-80.0247 85,-64"/>
</g>
</g>
</svg>
