<?xml version="1.0" encoding="UTF-8" standalone="no"?>
<!DOCTYPE svg PUBLIC "-//W3C//DTD SVG 1.1//EN"
 "http://www.w3.org/Graphics/SVG/1.1/DTD/svg11.dtd">
<!-- Generated by graphviz version 2.28.0 (20110507.0327)
 -->
<!-- Title: G Pages: 1 -->
<svg width="180pt" height="170pt"
 viewBox="0.00 0.00 180.00 170.00" xmlns="http://www.w3.org/2000/svg" xmlns:xlink="http://www.w3.org/1999/xlink">
<g id="graph1" class="graph" transform="scale(1 1) rotate(0) translate(4 166)">
<title>G</title>
<polygon fill="white" stroke="white" points="-4,5 -4,-166 177,-166 177,5 -4,5"/>
<g id="graph2" class="cluster"><title>cluster_in</title>
<polygon fill="none" stroke="white" points="32,-91 32,-154 164,-154 164,-91 32,-91"/>
<text text-anchor="middle" x="98" y="-138.8" font-family="Times New Roman,serif" font-size="14.00">input</text>
</g>
<g id="graph3" class="cluster"><title>cluster_out</title>
<polygon fill="none" stroke="white" points="8,-8 8,-71 142,-71 142,-8 8,-8"/>
<text text-anchor="middle" x="75" y="-15.8" font-family="Times New Roman,serif" font-size="14.00">output</text>
</g>
<!-- input -->
<g id="node2" class="node"><title>input</title>
<polygon fill="none" stroke="black" points="40,-99.5 40,-122.5 156,-122.5 156,-99.5 40,-99.5"/>
<text text-anchor="middle" x="51.5" y="-107.3" font-family="Times New Roman,serif" font-size="14.00">a</text>
<polyline fill="none" stroke="black" points="63,-99.5 63,-122.5 "/>
<text text-anchor="middle" x="74.5" y="-107.3" font-family="Times New Roman,serif" font-size="14.00">n</text>
<polyline fill="none" stroke="black" points="86,-99.5 86,-122.5 "/>
<text text-anchor="middle" x="98" y="-107.3" font-family="Times New Roman,serif" font-size="14.00">p</text>
<polyline fill="none" stroke="black" points="110,-99.5 110,-122.5 "/>
<text text-anchor="middle" x="121.5" y="-107.3" font-family="Times New Roman,serif" font-size="14.00">a</text>
<polyline fill="none" stroke="black" points="133,-99.5 133,-122.5 "/>
<text text-anchor="middle" x="144.5" y="-107.3" font-family="Times New Roman,serif" font-size="14.00">k</text>
</g>
<!-- output -->
<g id="node4" class="node"><title>output</title>
<polygon fill="none" stroke="black" points="16.5,-39.5 16.5,-62.5 133.5,-62.5 133.5,-39.5 16.5,-39.5"/>
<text text-anchor="middle" x="26.5" y="-47.3" font-family="Times New Roman,serif" font-size="14.00">t</text>
<polyline fill="none" stroke="black" points="36.5,-39.5 36.5,-62.5 "/>
<text text-anchor="middle" x="48" y="-47.3" font-family="Times New Roman,serif" font-size="14.00">a</text>
<polyline fill="none" stroke="black" points="59.5,-39.5 59.5,-62.5 "/>
<text text-anchor="middle" x="73" y="-47.3" font-family="Times New Roman,serif" font-size="14.00">m</text>
<polyline fill="none" stroke="black" points="86.5,-39.5 86.5,-62.5 "/>
<text text-anchor="middle" x="98.5" y="-47.3" font-family="Times New Roman,serif" font-size="14.00">p</text>
<polyline fill="none" stroke="black" points="110.5,-39.5 110.5,-62.5 "/>
<text text-anchor="middle" x="122" y="-47.3" font-family="Times New Roman,serif" font-size="14.00">a</text>
</g>
<!-- input&#45;&#45;output -->
<g id="edge4" class="edge"><title>input:p&#45;&#45;output:p</title>
<path fill="none" stroke="black" stroke-dasharray="5,2" d="M98,-98C98,-82.8824 99,-79.1176 99,-64"/>
</g>
<!-- input&#45;&#45;output -->
<g id="edge6" class="edge"><title>input:a&#45;&#45;output:a</title>
<path fill="none" stroke="black" stroke-dasharray="5,2" d="M51,-98C51,-82.8302 48,-79.1698 48,-64"/>
</g>
<!-- input&#45;&#45;output -->
<g id="edge8" class="edge"><title>input:a2&#45;&#45;output:a2</title>
<path fill="none" stroke="black" stroke-dasharray="5,2" d="M122,-98C122,-82.8889 122,-79.1111 122,-64"/>
</g>
</g>
</svg>
