<?xml version="1.0" encoding="UTF-8" standalone="no"?>
<!DOCTYPE svg PUBLIC "-//W3C//DTD SVG 1.1//EN"
 "http://www.w3.org/Graphics/SVG/1.1/DTD/svg11.dtd">
<!-- Generated by graphviz version 2.28.0 (20110507.0327)
 -->
<!-- Title: G Pages: 1 -->
<svg width="216pt" height="116pt"
 viewBox="0.00 0.00 216.00 116.00" xmlns="http://www.w3.org/2000/svg" xmlns:xlink="http://www.w3.org/1999/xlink">
<g id="graph1" class="graph" transform="scale(1 1) rotate(0) translate(4 112)">
<title>G</title>
<polygon fill="white" stroke="white" points="-4,5 -4,-112 213,-112 213,5 -4,5"/>
<!-- Agree -->
<g id="node1" class="node"><title>Agree</title>
<ellipse fill="none" stroke="black" cx="32" cy="-90" rx="32.2457" ry="18"/>
<text text-anchor="middle" x="32" y="-86.3" font-family="Times New Roman,serif" font-size="14.00">Agree</text>
</g>
<!-- Ident -->
<g id="node3" class="node"><title>Ident</title>
<ellipse fill="none" stroke="black" cx="109" cy="-18" rx="29.3722" ry="18"/>
<text text-anchor="middle" x="109" y="-14.3" font-family="Times New Roman,serif" font-size="14.00">Ident</text>
</g>
<!-- Agree&#45;&gt;Ident -->
<g id="edge2" class="edge"><title>Agree&#45;&gt;Ident</title>
<path fill="none" stroke="black" d="M48.3297,-74.1548C59.1937,-64.2784 73.6305,-51.154 85.6958,-40.1857"/>
<polygon fill="black" stroke="black" points="88.1754,-42.6616 93.2205,-33.345 83.4667,-37.482 88.1754,-42.6616"/>
</g>
<!-- Max -->
<g id="node4" class="node"><title>Max</title>
<ellipse fill="none" stroke="black" cx="109" cy="-90" rx="27" ry="18"/>
<text text-anchor="middle" x="109" y="-86.3" font-family="Times New Roman,serif" font-size="14.00">Max</text>
</g>
<!-- Max&#45;&gt;Ident -->
<g id="edge4" class="edge"><title>Max&#45;&gt;Ident</title>
<path fill="none" stroke="black" d="M109,-71.6966C109,-63.9827 109,-54.7125 109,-46.1124"/>
<polygon fill="black" stroke="black" points="112.5,-46.1043 109,-36.1043 105.5,-46.1044 112.5,-46.1043"/>
</g>
<!-- Dep -->
<g id="node6" class="node"><title>Dep</title>
<ellipse fill="none" stroke="black" cx="181" cy="-90" rx="27" ry="18"/>
<text text-anchor="middle" x="181" y="-86.3" font-family="Times New Roman,serif" font-size="14.00">Dep</text>
</g>
<!-- Dep&#45;&gt;Ident -->
<g id="edge6" class="edge"><title>Dep&#45;&gt;Ident</title>
<path fill="none" stroke="black" d="M166.43,-74.8345C156.414,-65.0967 142.918,-51.9761 131.526,-40.9006"/>
<polygon fill="black" stroke="black" points="133.654,-38.0877 124.044,-33.6263 128.774,-43.1066 133.654,-38.0877"/>
</g>
</g>
</svg>
