<?xml version="1.0" encoding="UTF-8" standalone="no"?>
<!DOCTYPE svg PUBLIC "-//W3C//DTD SVG 1.1//EN"
 "http://www.w3.org/Graphics/SVG/1.1/DTD/svg11.dtd">
<!-- Generated by graphviz version 2.28.0 (20110507.0327)
 -->
<!-- Title: G Pages: 1 -->
<svg width="179pt" height="170pt"
 viewBox="0.00 0.00 179.00 170.00" xmlns="http://www.w3.org/2000/svg" xmlns:xlink="http://www.w3.org/1999/xlink">
<g id="graph1" class="graph" transform="scale(1 1) rotate(0) translate(4 166)">
<title>G</title>
<polygon fill="white" stroke="white" points="-4,5 -4,-166 176,-166 176,5 -4,5"/>
<g id="graph2" class="cluster"><title>cluster_in</title>
<polygon fill="none" stroke="white" points="31,-91 31,-154 163,-154 163,-91 31,-91"/>
<text text-anchor="middle" x="97" y="-138.8" font-family="Times New Roman,serif" font-size="14.00">input</text>
</g>
<g id="graph3" class="cluster"><title>cluster_out</title>
<polygon fill="none" stroke="white" points="8,-8 8,-71 142,-71 142,-8 8,-8"/>
<text text-anchor="middle" x="75" y="-15.8" font-family="Times New Roman,serif" font-size="14.00">output</text>
</g>
<!-- input -->
<g id="node2" class="node"><title>input</title>
<polygon fill="none" stroke="black" points="39,-99.5 39,-122.5 155,-122.5 155,-99.5 39,-99.5"/>
<text text-anchor="middle" x="50.5" y="-107.3" font-family="Times New Roman,serif" font-size="14.00">a</text>
<polyline fill="none" stroke="black" points="62,-99.5 62,-122.5 "/>
<text text-anchor="middle" x="73.5" y="-107.3" font-family="Times New Roman,serif" font-size="14.00">n</text>
<polyline fill="none" stroke="black" points="85,-99.5 85,-122.5 "/>
<text text-anchor="middle" x="97" y="-107.3" font-family="Times New Roman,serif" font-size="14.00">p</text>
<polyline fill="none" stroke="black" points="109,-99.5 109,-122.5 "/>
<text text-anchor="middle" x="120.5" y="-107.3" font-family="Times New Roman,serif" font-size="14.00">a</text>
<polyline fill="none" stroke="black" points="132,-99.5 132,-122.5 "/>
<text text-anchor="middle" x="143.5" y="-107.3" font-family="Times New Roman,serif" font-size="14.00">k</text>
</g>
<!-- output -->
<g id="node4" class="node"><title>output</title>
<polygon fill="none" stroke="black" points="16.5,-39.5 16.5,-62.5 133.5,-62.5 133.5,-39.5 16.5,-39.5"/>
<text text-anchor="middle" x="26.5" y="-47.3" font-family="Times New Roman,serif" font-size="14.00">t</text>
<polyline fill="none" stroke="black" points="36.5,-39.5 36.5,-62.5 "/>
<text text-anchor="middle" x="48" y="-47.3" font-family="Times New Roman,serif" font-size="14.00">a</text>
<polyline fill="none" stroke="black" points="59.5,-39.5 59.5,-62.5 "/>
<text text-anchor="middle" x="73" y="-47.3" font-family="Times New Roman,serif" font-size="14.00">m</text>
<polyline fill="none" stroke="black" points="86.5,-39.5 86.5,-62.5 "/>
<text text-anchor="middle" x="98.5" y="-47.3" font-family="Times New Roman,serif" font-size="14.00">p</text>
<polyline fill="none" stroke="black" points="110.5,-39.5 110.5,-62.5 "/>
<text text-anchor="middle" x="122" y="-47.3" font-family="Times New Roman,serif" font-size="14.00">a</text>
</g>
<!-- input&#45;&#45;output -->
<g id="edge4" class="edge"><title>input:p&#45;&#45;output:p</title>
<path fill="none" stroke="black" stroke-dasharray="5,2" d="M97,-98C97,-82.8628 99,-79.1372 99,-64"/>
</g>
<!-- input&#45;&#45;output -->
<g id="edge6" class="edge"><title>input:n&#45;&#45;output:m</title>
<path fill="none" stroke="black" stroke-dasharray="5,2" d="M73,-98C73,-82.8889 73,-79.1111 73,-64"/>
</g>
<!-- input&#45;&#45;output -->
<g id="edge8" class="edge"><title>input:a&#45;&#45;output:a</title>
<path fill="none" stroke="black" stroke-dasharray="5,2" d="M50,-98C50,-82.8628 48,-79.1372 48,-64"/>
</g>
<!-- input&#45;&#45;output -->
<g id="edge10" class="edge"><title>input:a2&#45;&#45;output:a2</title>
<path fill="none" stroke="black" stroke-dasharray="5,2" d="M121,-98C121,-82.8824 122,-79.1176 122,-64"/>
</g>
</g>
</svg>
