<?xml version="1.0" encoding="UTF-8" standalone="no"?>
<!DOCTYPE svg PUBLIC "-//W3C//DTD SVG 1.1//EN"
 "http://www.w3.org/Graphics/SVG/1.1/DTD/svg11.dtd">
<!-- Generated by graphviz version 2.28.0 (20110507.0327)
 -->
<!-- Title: G Pages: 1 -->
<svg width="104pt" height="170pt"
 viewBox="0.00 0.00 104.00 170.00" xmlns="http://www.w3.org/2000/svg" xmlns:xlink="http://www.w3.org/1999/xlink">
<g id="graph1" class="graph" transform="scale(1 1) rotate(0) translate(4 166)">
<title>G</title>
<polygon fill="white" stroke="white" points="-4,5 -4,-166 101,-166 101,5 -4,5"/>
<g id="graph2" class="cluster"><title>cluster_in</title>
<polygon fill="none" stroke="white" points="8,-91 8,-154 88,-154 88,-91 8,-91"/>
<text text-anchor="middle" x="48" y="-138.8" font-family="Times New Roman,serif" font-size="14.00">input</text>
</g>
<g id="graph3" class="cluster"><title>cluster_out</title>
<polygon fill="none" stroke="white" points="8,-8 8,-71 88,-71 88,-8 8,-8"/>
<text text-anchor="middle" x="48" y="-15.8" font-family="Times New Roman,serif" font-size="14.00">output</text>
</g>
<!-- input -->
<g id="node2" class="node"><title>input</title>
<polygon fill="none" stroke="black" points="16.5,-99.5 16.5,-122.5 79.5,-122.5 79.5,-99.5 16.5,-99.5"/>
<text text-anchor="middle" x="26.5" y="-107.3" font-family="Times New Roman,serif" font-size="14.00">t</text>
<polyline fill="none" stroke="black" points="36.5,-99.5 36.5,-122.5 "/>
<text text-anchor="middle" x="46.5" y="-107.3" font-family="Times New Roman,serif" font-size="14.00">l</text>
<polyline fill="none" stroke="black" points="56.5,-99.5 56.5,-122.5 "/>
<text text-anchor="middle" x="68" y="-107.3" font-family="Times New Roman,serif" font-size="14.00">a</text>
</g>
<!-- output -->
<g id="node4" class="node"><title>output</title>
<polygon fill="none" stroke="black" points="16.5,-39.5 16.5,-62.5 79.5,-62.5 79.5,-39.5 16.5,-39.5"/>
<text text-anchor="middle" x="26.5" y="-47.3" font-family="Times New Roman,serif" font-size="14.00">t</text>
<polyline fill="none" stroke="black" points="36.5,-39.5 36.5,-62.5 "/>
<text text-anchor="middle" x="48" y="-47.3" font-family="Times New Roman,serif" font-size="14.00">a</text>
<polyline fill="none" stroke="black" points="59.5,-39.5 59.5,-62.5 "/>
<text text-anchor="middle" x="69.5" y="-47.3" font-family="Times New Roman,serif" font-size="14.00">l</text>
</g>
<!-- input&#45;&#45;output -->
<g id="edge4" class="edge"><title>input:t&#45;&#45;output:t</title>
<path fill="none" stroke="black" stroke-dasharray="5,2" d="M26,-98C26,-82.8889 26,-79.1111 26,-64"/>
</g>
<!-- input&#45;&#45;output -->
<g id="edge6" class="edge"><title>input:a&#45;&#45;output:a</title>
<path fill="none" stroke="black" stroke-dasharray="5,2" d="M68,-98C68,-80.4684 48,-81.5316 48,-64"/>
</g>
<!-- input&#45;&#45;output -->
<g id="edge8" class="edge"><title>input:l&#45;&#45;output:l</title>
<path fill="none" stroke="black" stroke-dasharray="5,2" d="M46,-98C46,-79.5034 70,-82.4966 70,-64"/>
</g>
</g>
</svg>
