<?xml version="1.0" encoding="UTF-8" standalone="no"?>
<!DOCTYPE svg PUBLIC "-//W3C//DTD SVG 1.1//EN"
 "http://www.w3.org/Graphics/SVG/1.1/DTD/svg11.dtd">
<!-- Generated by graphviz version 2.28.0 (20110507.0327)
 -->
<!-- Title: G Pages: 1 -->
<svg width="106pt" height="170pt"
 viewBox="0.00 0.00 106.00 170.00" xmlns="http://www.w3.org/2000/svg" xmlns:xlink="http://www.w3.org/1999/xlink">
<g id="graph1" class="graph" transform="scale(1 1) rotate(0) translate(4 166)">
<title>G</title>
<polygon fill="white" stroke="white" points="-4,5 -4,-166 103,-166 103,5 -4,5"/>
<g id="graph2" class="cluster"><title>cluster_in</title>
<polygon fill="none" stroke="white" points="8,-91 8,-154 78,-154 78,-91 8,-91"/>
<text text-anchor="middle" x="43" y="-138.8" font-family="Times New Roman,serif" font-size="14.00">input</text>
</g>
<g id="graph3" class="cluster"><title>cluster_out</title>
<polygon fill="none" stroke="white" points="10,-8 10,-71 90,-71 90,-8 10,-8"/>
<text text-anchor="middle" x="50" y="-15.8" font-family="Times New Roman,serif" font-size="14.00">output</text>
</g>
<!-- input -->
<g id="node2" class="node"><title>input</title>
<polygon fill="none" stroke="black" points="16,-99.5 16,-122.5 70,-122.5 70,-99.5 16,-99.5"/>
<text text-anchor="middle" x="30" y="-107.3" font-family="Times New Roman,serif" font-size="14.00">a</text>
<polyline fill="none" stroke="black" points="44,-99.5 44,-122.5 "/>
<text text-anchor="middle" x="57" y="-107.3" font-family="Times New Roman,serif" font-size="14.00">i</text>
</g>
<!-- output -->
<g id="node4" class="node"><title>output</title>
<polygon fill="none" stroke="black" points="18.5,-39.5 18.5,-62.5 81.5,-62.5 81.5,-39.5 18.5,-39.5"/>
<text text-anchor="middle" x="30" y="-47.3" font-family="Times New Roman,serif" font-size="14.00">a</text>
<polyline fill="none" stroke="black" points="41.5,-39.5 41.5,-62.5 "/>
<text text-anchor="middle" x="51.5" y="-47.3" font-family="Times New Roman,serif" font-size="14.00">j</text>
<polyline fill="none" stroke="black" points="61.5,-39.5 61.5,-62.5 "/>
<text text-anchor="middle" x="71.5" y="-47.3" font-family="Times New Roman,serif" font-size="14.00">i</text>
</g>
<!-- input&#45;&#45;output -->
<g id="edge4" class="edge"><title>input:a&#45;&#45;output:a</title>
<path fill="none" stroke="black" stroke-dasharray="5,2" d="M30,-98C30,-82.8889 30,-79.1111 30,-64"/>
</g>
<!-- input&#45;&#45;output -->
<g id="edge6" class="edge"><title>input:i&#45;&#45;output:i</title>
<path fill="none" stroke="black" stroke-dasharray="5,2" d="M57,-98C57,-81.4836 72,-80.5164 72,-64"/>
</g>
<!-- input&#45;&#45;output -->
<g id="edge8" class="edge"><title>input:i&#45;&#45;output:j</title>
<path fill="none" stroke="black" stroke-dasharray="5,2" d="M57,-98C57,-82.7264 52,-79.2736 52,-64"/>
</g>
</g>
</svg>
